<svg className="w-6 h-6 text-green-800 dark:text-white" version="1.1" id="Capa_1" xmlns="http://www.w3.org/2000/svg" xmlns:xlink="http://www.w3.org/1999/xlink" x="0px" y="0px" viewBox="0 0 201.387 201.387" style="enable-background:new 0 0 201.387 201.387;" xml:space="preserve"><g><g><path d="M100.693,0C45.17,0,0,45.17,0,100.693s45.17,100.693,100.693,100.693s100.693-45.17,100.693-100.693S156.216,0,100.693,0z M100.693,194.56c-51.758,0-93.867-42.109-93.867-93.867S48.935,6.827,100.693,6.827s93.867,42.109,93.867,93.867 S152.451,194.56,100.693,194.56z"/></g></g><g><g><path d="M115.173,100.693l38.84-38.839c1.935-1.934,3-4.506,3-7.241s-1.065-5.308-3-7.24c-3.992-3.994-10.486-3.994-14.479,0 l-38.84,38.839L61.855,47.374c-1.935-1.934-4.507-3-7.241-3c-2.734,0-5.306,1.067-7.24,3c-3.994,3.99-3.994,10.487,0,14.479 l38.84,38.84l-38.84,38.839c-1.935,1.934-3,4.506-3,7.241s1.065,5.308,3,7.24c1.934,1.935,4.506,3,7.24,3 c2.734,0,5.306-1.065,7.24-3l38.84-38.839l38.839,38.839c1.935,1.934,4.506,3,7.241,3s5.306-1.067,7.24-3 c1.935-1.934,3-4.506,3-7.24s-1.065-5.306-3-7.24L115.173,100.693z M149.185,149.187c-1.287,1.289-3.534,1.29-4.825,0 l-43.667-43.667l-43.667,43.667c-1.29,1.29-3.536,1.292-4.826,0c-0.645-0.645-1-1.502-1-2.413c0-0.911,0.355-1.768,1-2.413 l43.667-43.667L52.2,57.028c-1.329-1.331-1.329-3.497,0.002-4.828c1.287-1.289,3.535-1.29,4.825,0l43.667,43.667L144.36,52.2 c1.33-1.331,3.497-1.331,4.826,0c0.645,0.645,1,1.502,1,2.413c0,0.911-0.355,1.768-1,2.413l-43.667,43.667l43.667,43.665 c0.645,0.645,1,1.502,1,2.413S149.832,148.541,149.185,149.187z"/></g></g></svg>