<svg width="217" height="55" viewBox="0 0 217 55" fill="none" xmlns="http://www.w3.org/2000/svg">
<g clip-path="url(#clip0_175_9034)">
<path d="M45.4197 1.42676H42.7607V31.872C42.7607 32.4618 42.723 33.0422 42.6758 33.6227C41.799 43.8272 33.2185 51.8411 22.7146 51.8411C12.2106 51.8411 3.55475 43.7711 2.73442 33.5103C2.68728 32.9673 2.65899 32.4243 2.65899 31.872V4.06684H21.3756V17.3422H34.7366V30.6362H21.3756V46.5422H24.0535V33.2763H37.405V14.7021H24.0535V1.42676H0V31.872C0 32.3588 0 32.8737 0.0282871 33.3512C0.773182 45.1566 10.6454 54.4999 22.724 54.4999C34.8026 54.4999 44.6654 45.1566 45.4197 33.3512C45.448 32.8643 45.4386 32.3682 45.4386 31.872V1.42676H45.4197Z" fill="#FF033E"/>
<path d="M56.1309 15.7227V4.08569H58.8276L62.4389 8.99138L65.8522 4.08569H68.3792V15.7133H65.7013V8.29859L62.4389 12.8392H62.0523L58.8087 8.35476V15.7133H56.1309V15.7227Z" fill="#37383E"/>
<path d="M71.7451 15.7227V4.08569H79.6938V6.57598H74.423V8.6169H79.1941V11.1072H74.423V13.2136H79.8541V15.7039H71.7451V15.7227Z" fill="#37383E"/>
<path d="M82.1836 17.7167V13.2323H83.4377C83.7582 12.8204 84.1071 12.0059 84.456 10.7888C84.8237 9.56238 85.0406 8.09254 85.1255 6.41675L85.2292 4.09497H92.8761V13.2229H94.4696V17.7073H91.9615V15.7132H84.7011V17.7073H82.193L82.1836 17.7167ZM87.643 8.54192C87.5581 9.48748 87.379 10.4518 87.1055 11.3973C86.8321 12.3429 86.6058 12.9421 86.3889 13.2229H90.2077V6.5759H87.8316L87.643 8.53256V8.54192Z" fill="#37383E"/>
<path d="M99.8062 15.7227H97.4678V4.08569H100.146V11.3132L105.332 4.08569H107.67V15.7133H104.992V8.48583L99.8062 15.7133V15.7227Z" fill="#37383E"/>
<path d="M111.64 15.7227V4.08569H114.317V13.223H118.334V4.08569H121.012V13.223H122.606V17.7074H120.098V15.7133H111.649L111.64 15.7227Z" fill="#37383E"/>
<path d="M128.141 15.7227H125.803V4.08569H128.481V11.3132L133.667 4.08569H136.005V15.7133H133.327V8.48583L128.141 15.7133V15.7227Z" fill="#37383E"/>
<path d="M147.32 15.7227V11.0323H142.652V15.7227H139.975V4.08569H142.652V8.542H147.32V4.08569H149.998V15.7133H147.32V15.7227Z" fill="#37383E"/>
<path d="M163.085 14.571C162.736 14.9736 162.199 15.3013 161.492 15.554C160.784 15.8068 160.049 15.9192 159.266 15.9192C157.446 15.9192 155.966 15.3668 154.835 14.2715C153.694 13.1574 153.128 11.7156 153.128 9.8994C153.128 8.08318 153.665 6.70696 154.731 5.57416C155.806 4.44136 157.305 3.87964 159.247 3.87964C160.737 3.87964 162.095 4.37582 162.83 5.0967L161.642 7.0908C160.86 6.61334 160.049 6.37929 159.247 6.37929C158.295 6.37929 157.503 6.6976 156.89 7.30613C156.277 7.91466 155.966 8.78533 155.966 9.8994C155.966 10.9292 156.296 11.7812 156.956 12.4365C157.607 13.0825 158.465 13.4195 159.511 13.4195C160.445 13.4195 161.303 13.1387 162.057 12.5676L163.076 14.5617L163.085 14.571Z" fill="#37383E"/>
<path d="M180.585 15.7227H178.247V4.08569H180.925V11.3132L186.111 4.08569H188.449V15.7133H185.771V8.48583L180.585 15.7133V15.7227Z" fill="#37383E"/>
<path d="M194.333 15.7227H191.994V4.08569H194.672V11.3132L199.858 4.08569H202.196V15.7133H199.519V8.48583L194.333 15.7133V15.7227Z" fill="#37383E"/>
<path d="M68.7476 23.6897C69.9074 22.5476 71.4066 21.9578 73.2453 21.9578C75.084 21.9578 76.5549 22.5101 77.7147 23.6055C78.8839 24.7008 79.4685 26.1613 79.4685 27.9775C79.4685 29.7938 78.8839 31.17 77.6958 32.2934C76.5266 33.4262 75.0368 33.9879 73.2453 33.9879C71.4538 33.9879 69.9357 33.4356 68.7571 32.3402C67.6067 31.2449 67.0127 29.7844 67.0127 27.9682C67.0127 26.2549 67.5784 24.8225 68.7382 23.6804L68.7476 23.6897ZM70.8597 30.4865C71.5104 31.17 72.3118 31.4976 73.2547 31.4976C74.3296 31.4976 75.1594 31.1606 75.744 30.5146C76.3286 29.8499 76.6303 29.0073 76.6303 27.9775C76.6303 26.9477 76.3097 26.0864 75.6591 25.4311C75.0085 24.7757 74.2071 24.4481 73.2453 24.4481C72.2835 24.4481 71.4538 24.7851 70.822 25.4311C70.1809 26.077 69.8697 26.929 69.8697 27.9775C69.8697 29.0261 70.1997 29.8031 70.8597 30.4865Z" fill="#37383E"/>
<path d="M100.231 33.8007V24.6634H96.129V33.8007H93.4512V22.1731H102.909V33.8007H100.231Z" fill="#37383E"/>
<path d="M107.161 23.6897C108.321 22.5476 109.82 21.9578 111.658 21.9578C113.497 21.9578 114.968 22.5101 116.128 23.6055C117.297 24.7008 117.882 26.1613 117.882 27.9775C117.882 29.7938 117.297 31.17 116.109 32.2934C114.94 33.4262 113.45 33.9879 111.658 33.9879C109.867 33.9879 108.349 33.4356 107.17 32.3402C106.02 31.2449 105.426 29.7844 105.426 27.9682C105.426 26.2549 105.992 24.8225 107.151 23.6804L107.161 23.6897ZM109.273 30.4865C109.923 31.17 110.725 31.4976 111.668 31.4976C112.743 31.4976 113.572 31.1606 114.157 30.5146C114.742 29.8499 115.043 29.0073 115.043 27.9775C115.043 26.9477 114.723 26.0864 114.072 25.4311C113.422 24.7757 112.62 24.4481 111.658 24.4481C110.697 24.4481 109.867 24.7851 109.235 25.4311C108.594 26.077 108.283 26.929 108.283 27.9775C108.283 29.0261 108.613 29.8031 109.273 30.4865Z" fill="#37383E"/>
<path d="M129.895 33.8007L134.769 22.1731H137.164L142.039 33.8007H139.173L138.202 31.3572H133.562L132.591 33.8007H129.895ZM135.882 25.5715L134.562 28.8576H137.193L135.891 25.5715H135.882Z" fill="#37383E"/>
<path d="M142.039 24.6539V22.1636H150.95V24.6539H147.838V33.7912H145.16V24.6539H142.048H142.039Z" fill="#37383E"/>
<path d="M155.918 33.8007H153.58V22.1731H156.258V29.4006L161.444 22.1731H163.782V33.8007H161.104V26.5732L155.918 33.8007Z" fill="#37383E"/>
<path d="M167.356 22.2011C168.657 22.1356 170.854 22.0981 171.901 22.0981C174.56 22.0981 175.833 23.259 175.833 24.991C175.833 26.1425 175.38 27.0038 174.494 27.5843V27.6217C175.446 27.9681 176.163 28.8856 176.163 30.2805C176.163 31.4601 175.748 32.3402 174.928 32.9581C174.107 33.576 173.032 33.8755 171.712 33.8755C170.157 33.8755 168.035 33.8381 167.347 33.7726V22.2105L167.356 22.2011ZM170.034 24.6633V26.7698H171.92C172.74 26.7698 173.155 26.3859 173.155 25.637C173.155 24.9723 172.589 24.5884 171.863 24.5884C171.712 24.5884 170.43 24.6072 170.025 24.654L170.034 24.6633ZM170.034 29.1009V31.2823C170.289 31.3478 171.59 31.3852 171.939 31.3852C172.976 31.3852 173.494 30.9733 173.494 30.1588C173.494 29.4567 173.023 29.1103 172.071 29.1103H170.034V29.1009Z" fill="#37383E"/>
<path d="M185.781 33.8007V29.1103H181.113V33.8007H178.436V22.1731H181.113V26.6294H185.781V22.1731H188.459V33.8007H185.781Z" fill="#37383E"/>
<path d="M200.244 29.6065C200.244 27.6218 198.783 25.8992 196.887 25.506C196.689 25.4685 195.615 25.2345 194.351 25.5341V22.145H191.683V33.7726H194.351H196.029C198.283 33.7445 200.244 31.844 200.244 29.5972V29.6065ZM194.351 31.2355V28.0056C194.483 27.9588 195.501 27.6218 196.397 27.9307C197.142 28.1929 197.67 28.9325 197.67 29.5878C197.67 30.4678 196.84 31.2449 195.963 31.273L194.351 31.2355Z" fill="#37383E"/>
<path d="M209.126 33.8007H206.788V22.1731H209.466V29.4006L214.652 22.1731H216.99V33.8007H214.312V26.5732L209.126 33.8007Z" fill="#37383E"/>
<path d="M76.1587 51.8036V47.1133H71.4913V51.8036H68.8135V40.176H71.4913V44.6323H76.1587V40.176H78.8365V51.8036H76.1587Z" fill="#37383E"/>
<path d="M84.7388 51.8036H82.4004V40.176H85.0782V47.4035L90.2642 40.176H92.6026V51.8036H89.9248V44.5762L84.7388 51.8036Z" fill="#37383E"/>
<path d="M96.5817 40.2043C97.8829 40.1388 100.08 40.1013 101.126 40.1013C103.785 40.1013 105.058 41.2622 105.058 42.9942C105.058 44.1457 104.606 45.007 103.719 45.5874V45.6249C104.672 45.9713 105.388 46.8888 105.388 48.2837C105.388 49.4633 104.974 50.3433 104.153 50.9612C103.333 51.5791 102.258 51.8787 100.938 51.8787C99.3821 51.8787 97.2606 51.8413 96.5723 51.7757V40.2137L96.5817 40.2043ZM99.2595 42.6665V44.773H101.145C101.966 44.773 102.381 44.3891 102.381 43.6402C102.381 42.9755 101.815 42.5916 101.089 42.5916C100.938 42.5916 99.6556 42.6103 99.2501 42.6571L99.2595 42.6665ZM99.2595 47.1041V49.2854C99.5141 49.351 100.815 49.3884 101.164 49.3884C102.201 49.3884 102.72 48.9765 102.72 48.162C102.72 47.4598 102.249 47.1135 101.296 47.1135H99.2595V47.1041Z" fill="#37383E"/>
<path d="M109.065 51.8036V40.176H117.014V42.6663H111.743V44.7072H116.514V47.1975H111.743V49.304H117.174V51.7943H109.065V51.8036Z" fill="#37383E"/>
<path d="M141.275 50.6616C140.927 51.0642 140.389 51.3919 139.682 51.6446C138.975 51.8974 138.239 52.0097 137.457 52.0097C135.637 52.0097 134.156 51.4574 133.025 50.362C131.884 49.248 131.318 47.8062 131.318 45.99C131.318 44.1738 131.856 42.7975 132.921 41.6647C133.996 40.5319 135.495 39.9702 137.438 39.9702C138.928 39.9702 140.285 40.4664 141.021 41.1873L139.833 43.1814C139.05 42.7039 138.239 42.4699 137.438 42.4699C136.485 42.4699 135.693 42.7882 135.081 43.3967C134.468 44.0052 134.156 44.8759 134.156 45.99C134.156 47.0198 134.487 47.8717 135.147 48.5271C135.797 49.1731 136.655 49.5101 137.702 49.5101C138.635 49.5101 139.493 49.2292 140.248 48.6581L141.266 50.6523L141.275 50.6616Z" fill="#37383E"/>
<path d="M146.81 51.8036H144.472V40.176H147.15V47.4035L152.335 40.176H154.674V51.8036H151.996V44.5762L146.81 51.8036Z" fill="#37383E"/>
<path d="M157.163 42.6663V40.176H166.074V42.6663H162.962V51.8036H160.284V42.6663H157.173H157.163Z" fill="#37383E"/>
<path d="M168.846 51.8036V40.176H176.794V42.6663H171.524V44.7072H176.295V47.1975H171.524V49.304H176.955V51.7943H168.846V51.8036Z" fill="#37383E"/>
<path d="M179.548 42.6663V40.176H188.458V42.6663H185.347V51.8036H182.669V42.6663H179.557H179.548Z" fill="#37383E"/>
<path d="M63.4951 40.1947L61.1284 45.8588C59.8083 44.1174 58.6957 42.2169 57.8376 40.176H55.1221C56.2536 43.1812 57.8942 45.9243 59.9026 48.3584L59.8272 48.5176L59.6763 48.864C59.5254 49.1823 59.2426 49.3321 58.8088 49.3321C58.5448 49.3321 58.2714 49.2291 57.9885 49.0512L57.055 51.3074C57.3945 51.5696 58.1771 51.8223 58.8277 51.8223C60.3835 51.8223 61.4395 50.9236 62.2599 49.0606L66.1918 40.1854H63.4951V40.1947Z" fill="#37383E"/>
<path d="M61.4111 28.0804C63.0235 26.2735 64.3718 24.3075 65.3336 22.1636H62.3823C61.5148 23.8862 60.3834 25.4964 59.0444 26.9756L58.8087 27.191V22.1636H56.1309V33.7912H58.8087V28.7263L62.6369 33.7912H66.0502L61.4017 28.071L61.4111 28.0804Z" fill="#37383E"/>
<path d="M171.156 10.0025C172.769 8.19561 174.117 6.22959 175.079 4.08569H172.127C171.26 5.8083 170.128 7.41856 168.79 8.89776L168.554 9.11309V4.08569H165.876V15.7133H168.554V10.6485L172.382 15.7133H175.795L171.147 9.99311L171.156 10.0025Z" fill="#37383E"/>
<path d="M86.7569 22.1449H85.0786H82.4102V33.7725H85.0786V30.3834C86.3421 30.683 87.4264 30.449 87.615 30.4115C89.5102 30.0183 90.9717 28.2957 90.9717 26.3109C90.9717 24.0641 89.0199 22.1636 86.7569 22.1355V22.1449ZM86.6909 24.6445C87.5678 24.6726 88.3976 25.4496 88.3976 26.3297C88.3976 26.985 87.8696 27.7246 87.1247 27.9867C86.2289 28.3051 85.2106 27.968 85.0786 27.9119V24.682L86.6909 24.6445Z" fill="#37383E"/>
<path d="M124.991 22.1449H123.313H120.645V33.7725H123.313V30.3834C124.576 30.683 125.661 30.449 125.849 30.4115C127.745 30.0183 129.206 28.2957 129.206 26.3109C129.206 24.0641 127.254 22.1636 124.991 22.1355V22.1449ZM124.925 24.6445C125.802 24.6726 126.632 25.4496 126.632 26.3297C126.632 26.985 126.104 27.7246 125.359 27.9867C124.463 28.3051 123.445 27.968 123.313 27.9119V24.682L124.925 24.6445Z" fill="#37383E"/>
<path d="M124.991 40.1388H123.313H120.645V51.7664H123.313V48.3773C124.576 48.6769 125.661 48.4428 125.849 48.4054C127.745 48.0122 129.206 46.2896 129.206 44.3048C129.206 42.058 127.254 40.1575 124.991 40.1294V40.1388ZM124.925 42.6384C125.802 42.6665 126.632 43.4435 126.632 44.3236C126.632 44.9789 126.104 45.7185 125.359 45.9806C124.463 46.299 123.445 45.9619 123.313 45.9057V42.6759L124.925 42.6384Z" fill="#37383E"/>
<path d="M203.818 22.1636H201.141V33.7912H203.818V22.1636Z" fill="#37383E"/>
<path d="M211.135 18.5781C211.135 19.196 211.418 19.4113 212.172 19.4113C212.861 19.4113 213.143 19.2428 213.143 18.5781H215.652C215.67 19.3739 215.35 20.0199 214.699 20.5067C214.068 20.9842 213.228 21.2369 212.172 21.2369C209.947 21.2369 208.627 20.1884 208.627 18.5781H211.135Z" fill="#37383E"/>
<path d="M196.341 0.5C196.341 1.11789 196.624 1.33322 197.378 1.33322C198.067 1.33322 198.35 1.1647 198.35 0.5H200.858C200.877 1.29577 200.556 1.94175 199.905 2.42857C199.274 2.90603 198.434 3.15881 197.378 3.15881C195.153 3.15881 193.833 2.11026 193.833 0.5H196.341Z" fill="#37383E"/>
</g>
<defs>
<clipPath id="clip0_175_9034">
<rect width="217" height="54" fill="white" transform="translate(0 0.5)"/>
</clipPath>
</defs>
</svg>
